<mxfile host="app.diagrams.net" modified="2021-04-24T10:09:21.751Z" agent="5.0 (Macintosh; Intel Mac OS X 10_15_7) AppleWebKit/537.36 (KHTML, like Gecko) Chrome/90.0.4430.85 Safari/537.36" etag="aJU3B6Rj2JoX1eBU1sW0" version="14.5.10" type="github" pages="2">
  <diagram id="B3WU_T48diWh8vL53k2Y" name="Overall View">
    <mxGraphModel dx="946" dy="1129" grid="1" gridSize="10" guides="1" tooltips="1" connect="1" arrows="1" fold="1" page="1" pageScale="1" pageWidth="827" pageHeight="1169" math="0" shadow="0">
      <root>
        <mxCell id="EKi2b7D6NjeUTJ47CTkA-0" />
        <mxCell id="EKi2b7D6NjeUTJ47CTkA-1" parent="EKi2b7D6NjeUTJ47CTkA-0" />
        <mxCell id="EKi2b7D6NjeUTJ47CTkA-47" style="edgeStyle=orthogonalEdgeStyle;rounded=0;orthogonalLoop=1;jettySize=auto;html=1;entryX=0;entryY=0.75;entryDx=0;entryDy=0;dashed=1;exitX=0.655;exitY=-0.017;exitDx=0;exitDy=0;exitPerimeter=0;" edge="1" parent="EKi2b7D6NjeUTJ47CTkA-1" source="EKi2b7D6NjeUTJ47CTkA-2" target="EKi2b7D6NjeUTJ47CTkA-8">
          <mxGeometry relative="1" as="geometry">
            <Array as="points">
              <mxPoint x="237" y="186" />
            </Array>
          </mxGeometry>
        </mxCell>
        <mxCell id="EKi2b7D6NjeUTJ47CTkA-2" value="GameScene" style="shape=umlFrame;whiteSpace=wrap;html=1;movable=1;resizable=1;rotatable=1;deletable=1;editable=1;connectable=1;fillColor=#ffe6cc;strokeColor=#d79b00;width=90;height=30;" vertex="1" parent="EKi2b7D6NjeUTJ47CTkA-1">
          <mxGeometry x="80" y="280" width="240" height="190" as="geometry" />
        </mxCell>
        <mxCell id="EKi2b7D6NjeUTJ47CTkA-37" style="edgeStyle=orthogonalEdgeStyle;rounded=0;orthogonalLoop=1;jettySize=auto;html=1;entryX=0.492;entryY=0;entryDx=0;entryDy=0;entryPerimeter=0;" edge="1" parent="EKi2b7D6NjeUTJ47CTkA-1" source="EKi2b7D6NjeUTJ47CTkA-8" target="EKi2b7D6NjeUTJ47CTkA-2">
          <mxGeometry relative="1" as="geometry" />
        </mxCell>
        <mxCell id="EKi2b7D6NjeUTJ47CTkA-38" style="edgeStyle=orthogonalEdgeStyle;rounded=0;orthogonalLoop=1;jettySize=auto;html=1;entryX=0.371;entryY=-0.016;entryDx=0;entryDy=0;entryPerimeter=0;" edge="1" parent="EKi2b7D6NjeUTJ47CTkA-1" target="EKi2b7D6NjeUTJ47CTkA-14">
          <mxGeometry relative="1" as="geometry">
            <mxPoint x="489" y="194" as="sourcePoint" />
            <Array as="points">
              <mxPoint x="489" y="194" />
            </Array>
          </mxGeometry>
        </mxCell>
        <mxCell id="EKi2b7D6NjeUTJ47CTkA-40" style="edgeStyle=orthogonalEdgeStyle;rounded=0;orthogonalLoop=1;jettySize=auto;html=1;" edge="1" parent="EKi2b7D6NjeUTJ47CTkA-1" source="EKi2b7D6NjeUTJ47CTkA-8" target="EKi2b7D6NjeUTJ47CTkA-32">
          <mxGeometry relative="1" as="geometry" />
        </mxCell>
        <mxCell id="EKi2b7D6NjeUTJ47CTkA-45" style="edgeStyle=orthogonalEdgeStyle;rounded=0;orthogonalLoop=1;jettySize=auto;html=1;entryX=0.677;entryY=1.003;entryDx=0;entryDy=0;entryPerimeter=0;exitX=0.605;exitY=-0.003;exitDx=0;exitDy=0;exitPerimeter=0;dashed=1;" edge="1" parent="EKi2b7D6NjeUTJ47CTkA-1" source="EKi2b7D6NjeUTJ47CTkA-8" target="EKi2b7D6NjeUTJ47CTkA-41">
          <mxGeometry relative="1" as="geometry" />
        </mxCell>
        <mxCell id="EKi2b7D6NjeUTJ47CTkA-8" value="GameController" style="swimlane;fontStyle=1;align=center;verticalAlign=top;childLayout=stackLayout;horizontal=1;startSize=26;horizontalStack=0;resizeParent=1;resizeParentMax=0;resizeLast=0;collapsible=1;marginBottom=0;" vertex="1" parent="EKi2b7D6NjeUTJ47CTkA-1">
          <mxGeometry x="440" y="160" width="160" height="34" as="geometry" />
        </mxCell>
        <mxCell id="EKi2b7D6NjeUTJ47CTkA-10" value="" style="line;strokeWidth=1;fillColor=none;align=left;verticalAlign=middle;spacingTop=-1;spacingLeft=3;spacingRight=3;rotatable=0;labelPosition=right;points=[];portConstraint=eastwest;" vertex="1" parent="EKi2b7D6NjeUTJ47CTkA-8">
          <mxGeometry y="26" width="160" height="8" as="geometry" />
        </mxCell>
        <mxCell id="EKi2b7D6NjeUTJ47CTkA-12" value="CatcherController" style="swimlane;fontStyle=1;align=center;verticalAlign=top;childLayout=stackLayout;horizontal=1;startSize=26;horizontalStack=0;resizeParent=1;resizeParentMax=0;resizeLast=0;collapsible=1;marginBottom=0;" vertex="1" parent="EKi2b7D6NjeUTJ47CTkA-1">
          <mxGeometry x="120" y="370" width="160" height="34" as="geometry" />
        </mxCell>
        <mxCell id="EKi2b7D6NjeUTJ47CTkA-13" value="" style="line;strokeWidth=1;fillColor=none;align=left;verticalAlign=middle;spacingTop=-1;spacingLeft=3;spacingRight=3;rotatable=0;labelPosition=right;points=[];portConstraint=eastwest;" vertex="1" parent="EKi2b7D6NjeUTJ47CTkA-12">
          <mxGeometry y="26" width="160" height="8" as="geometry" />
        </mxCell>
        <mxCell id="EKi2b7D6NjeUTJ47CTkA-46" style="edgeStyle=orthogonalEdgeStyle;rounded=0;orthogonalLoop=1;jettySize=auto;html=1;dashed=1;exitX=0.625;exitY=0;exitDx=0;exitDy=0;exitPerimeter=0;" edge="1" parent="EKi2b7D6NjeUTJ47CTkA-1" source="EKi2b7D6NjeUTJ47CTkA-14">
          <mxGeometry relative="1" as="geometry">
            <mxPoint x="550" y="194" as="targetPoint" />
          </mxGeometry>
        </mxCell>
        <mxCell id="EKi2b7D6NjeUTJ47CTkA-14" value="ReceiveScene" style="shape=umlFrame;whiteSpace=wrap;html=1;movable=1;resizable=1;rotatable=1;deletable=1;editable=1;connectable=1;fillColor=#ffe6cc;strokeColor=#d79b00;width=90;height=30;" vertex="1" parent="EKi2b7D6NjeUTJ47CTkA-1">
          <mxGeometry x="400" y="280" width="240" height="140" as="geometry" />
        </mxCell>
        <mxCell id="EKi2b7D6NjeUTJ47CTkA-17" value="SceneController" style="swimlane;fontStyle=1;align=center;verticalAlign=top;childLayout=stackLayout;horizontal=1;startSize=26;horizontalStack=0;resizeParent=1;resizeParentMax=0;resizeLast=0;collapsible=1;marginBottom=0;" vertex="1" parent="EKi2b7D6NjeUTJ47CTkA-1">
          <mxGeometry x="440" y="320" width="160" height="34" as="geometry" />
        </mxCell>
        <mxCell id="EKi2b7D6NjeUTJ47CTkA-18" value="" style="line;strokeWidth=1;fillColor=none;align=left;verticalAlign=middle;spacingTop=-1;spacingLeft=3;spacingRight=3;rotatable=0;labelPosition=right;points=[];portConstraint=eastwest;" vertex="1" parent="EKi2b7D6NjeUTJ47CTkA-17">
          <mxGeometry y="26" width="160" height="8" as="geometry" />
        </mxCell>
        <mxCell id="EKi2b7D6NjeUTJ47CTkA-24" value="AnimationController" style="swimlane;fontStyle=1;align=center;verticalAlign=top;childLayout=stackLayout;horizontal=1;startSize=26;horizontalStack=0;resizeParent=1;resizeParentMax=0;resizeLast=0;collapsible=1;marginBottom=0;" vertex="1" parent="EKi2b7D6NjeUTJ47CTkA-1">
          <mxGeometry x="120" y="421" width="160" height="34" as="geometry" />
        </mxCell>
        <mxCell id="EKi2b7D6NjeUTJ47CTkA-25" value="" style="line;strokeWidth=1;fillColor=none;align=left;verticalAlign=middle;spacingTop=-1;spacingLeft=3;spacingRight=3;rotatable=0;labelPosition=right;points=[];portConstraint=eastwest;" vertex="1" parent="EKi2b7D6NjeUTJ47CTkA-24">
          <mxGeometry y="26" width="160" height="8" as="geometry" />
        </mxCell>
        <mxCell id="EKi2b7D6NjeUTJ47CTkA-28" value="SceneController" style="swimlane;fontStyle=1;align=center;verticalAlign=top;childLayout=stackLayout;horizontal=1;startSize=26;horizontalStack=0;resizeParent=1;resizeParentMax=0;resizeLast=0;collapsible=1;marginBottom=0;" vertex="1" parent="EKi2b7D6NjeUTJ47CTkA-1">
          <mxGeometry x="120" y="320" width="160" height="34" as="geometry" />
        </mxCell>
        <mxCell id="EKi2b7D6NjeUTJ47CTkA-29" value="" style="line;strokeWidth=1;fillColor=none;align=left;verticalAlign=middle;spacingTop=-1;spacingLeft=3;spacingRight=3;rotatable=0;labelPosition=right;points=[];portConstraint=eastwest;" vertex="1" parent="EKi2b7D6NjeUTJ47CTkA-28">
          <mxGeometry y="26" width="160" height="8" as="geometry" />
        </mxCell>
        <mxCell id="EKi2b7D6NjeUTJ47CTkA-30" value="AnimationController" style="swimlane;fontStyle=1;align=center;verticalAlign=top;childLayout=stackLayout;horizontal=1;startSize=26;horizontalStack=0;resizeParent=1;resizeParentMax=0;resizeLast=0;collapsible=1;marginBottom=0;" vertex="1" parent="EKi2b7D6NjeUTJ47CTkA-1">
          <mxGeometry x="440" y="370" width="160" height="34" as="geometry" />
        </mxCell>
        <mxCell id="EKi2b7D6NjeUTJ47CTkA-31" value="" style="line;strokeWidth=1;fillColor=none;align=left;verticalAlign=middle;spacingTop=-1;spacingLeft=3;spacingRight=3;rotatable=0;labelPosition=right;points=[];portConstraint=eastwest;" vertex="1" parent="EKi2b7D6NjeUTJ47CTkA-30">
          <mxGeometry y="26" width="160" height="8" as="geometry" />
        </mxCell>
        <mxCell id="EKi2b7D6NjeUTJ47CTkA-48" style="edgeStyle=orthogonalEdgeStyle;rounded=0;orthogonalLoop=1;jettySize=auto;html=1;entryX=1;entryY=0.75;entryDx=0;entryDy=0;dashed=1;" edge="1" parent="EKi2b7D6NjeUTJ47CTkA-1" source="EKi2b7D6NjeUTJ47CTkA-32" target="EKi2b7D6NjeUTJ47CTkA-8">
          <mxGeometry relative="1" as="geometry">
            <Array as="points">
              <mxPoint x="800" y="186" />
              <mxPoint x="660" y="186" />
            </Array>
          </mxGeometry>
        </mxCell>
        <mxCell id="EKi2b7D6NjeUTJ47CTkA-32" value="GetScene" style="shape=umlFrame;whiteSpace=wrap;html=1;movable=1;resizable=1;rotatable=1;deletable=1;editable=1;connectable=1;fillColor=#ffe6cc;strokeColor=#d79b00;width=90;height=30;" vertex="1" parent="EKi2b7D6NjeUTJ47CTkA-1">
          <mxGeometry x="720" y="281" width="240" height="140" as="geometry" />
        </mxCell>
        <mxCell id="EKi2b7D6NjeUTJ47CTkA-33" value="SceneController" style="swimlane;fontStyle=1;align=center;verticalAlign=top;childLayout=stackLayout;horizontal=1;startSize=26;horizontalStack=0;resizeParent=1;resizeParentMax=0;resizeLast=0;collapsible=1;marginBottom=0;" vertex="1" parent="EKi2b7D6NjeUTJ47CTkA-1">
          <mxGeometry x="760" y="321" width="160" height="34" as="geometry" />
        </mxCell>
        <mxCell id="EKi2b7D6NjeUTJ47CTkA-34" value="" style="line;strokeWidth=1;fillColor=none;align=left;verticalAlign=middle;spacingTop=-1;spacingLeft=3;spacingRight=3;rotatable=0;labelPosition=right;points=[];portConstraint=eastwest;" vertex="1" parent="EKi2b7D6NjeUTJ47CTkA-33">
          <mxGeometry y="26" width="160" height="8" as="geometry" />
        </mxCell>
        <mxCell id="EKi2b7D6NjeUTJ47CTkA-35" value="AnimationController" style="swimlane;fontStyle=1;align=center;verticalAlign=top;childLayout=stackLayout;horizontal=1;startSize=26;horizontalStack=0;resizeParent=1;resizeParentMax=0;resizeLast=0;collapsible=1;marginBottom=0;" vertex="1" parent="EKi2b7D6NjeUTJ47CTkA-1">
          <mxGeometry x="760" y="371" width="160" height="34" as="geometry" />
        </mxCell>
        <mxCell id="EKi2b7D6NjeUTJ47CTkA-36" value="" style="line;strokeWidth=1;fillColor=none;align=left;verticalAlign=middle;spacingTop=-1;spacingLeft=3;spacingRight=3;rotatable=0;labelPosition=right;points=[];portConstraint=eastwest;" vertex="1" parent="EKi2b7D6NjeUTJ47CTkA-35">
          <mxGeometry y="26" width="160" height="8" as="geometry" />
        </mxCell>
        <mxCell id="EKi2b7D6NjeUTJ47CTkA-43" style="edgeStyle=orthogonalEdgeStyle;rounded=0;orthogonalLoop=1;jettySize=auto;html=1;entryX=0.37;entryY=0.013;entryDx=0;entryDy=0;entryPerimeter=0;exitX=0.311;exitY=1.009;exitDx=0;exitDy=0;exitPerimeter=0;" edge="1" parent="EKi2b7D6NjeUTJ47CTkA-1" source="EKi2b7D6NjeUTJ47CTkA-41" target="EKi2b7D6NjeUTJ47CTkA-8">
          <mxGeometry relative="1" as="geometry" />
        </mxCell>
        <mxCell id="EKi2b7D6NjeUTJ47CTkA-41" value="Playmaker" style="html=1;" vertex="1" parent="EKi2b7D6NjeUTJ47CTkA-1">
          <mxGeometry x="465" y="70" width="110" height="50" as="geometry" />
        </mxCell>
      </root>
    </mxGraphModel>
  </diagram>
  <diagram id="C5RBs43oDa-KdzZeNtuy" name="Page-1">
    <mxGraphModel dx="541" dy="645" grid="1" gridSize="10" guides="1" tooltips="1" connect="1" arrows="1" fold="1" page="1" pageScale="1" pageWidth="827" pageHeight="1169" math="0" shadow="0">
      <root>
        <mxCell id="WIyWlLk6GJQsqaUBKTNV-0" />
        <mxCell id="WIyWlLk6GJQsqaUBKTNV-1" parent="WIyWlLk6GJQsqaUBKTNV-0" />
        <mxCell id="_qfW2867nF2-zkYvym3U-4" value="&lt;p style=&quot;margin: 0px ; margin-top: 4px ; text-align: center&quot;&gt;&lt;b&gt;CatcherController&lt;/b&gt;&lt;/p&gt;&lt;hr size=&quot;1&quot;&gt;&lt;p style=&quot;margin: 0px ; margin-left: 4px&quot;&gt;+ field: Type&lt;/p&gt;&lt;hr size=&quot;1&quot;&gt;&lt;p style=&quot;margin: 0px ; margin-left: 4px&quot;&gt;+ method(): Type&lt;/p&gt;" style="verticalAlign=top;align=left;overflow=fill;fontSize=12;fontFamily=Helvetica;html=1;" vertex="1" parent="WIyWlLk6GJQsqaUBKTNV-1">
          <mxGeometry x="240" y="360" width="160" height="90" as="geometry" />
        </mxCell>
        <mxCell id="_qfW2867nF2-zkYvym3U-6" value="&lt;p style=&quot;margin: 0px ; margin-top: 4px ; text-align: center&quot;&gt;&lt;b&gt;GameController&lt;/b&gt;&lt;/p&gt;&lt;hr size=&quot;1&quot;&gt;&lt;p style=&quot;margin: 0px ; margin-left: 4px&quot;&gt;+ field: Type&lt;/p&gt;&lt;hr size=&quot;1&quot;&gt;&lt;p style=&quot;margin: 0px ; margin-left: 4px&quot;&gt;+ method(): Type&lt;/p&gt;" style="verticalAlign=top;align=left;overflow=fill;fontSize=12;fontFamily=Helvetica;html=1;" vertex="1" parent="WIyWlLk6GJQsqaUBKTNV-1">
          <mxGeometry x="240" y="230" width="160" height="90" as="geometry" />
        </mxCell>
      </root>
    </mxGraphModel>
  </diagram>
</mxfile>
